# xmcd
#
# Track frame offsets:
#	150
#	48694
#	84795
#	178293
#	211594
#	275378
#	313109
#
# Disc length: 4520 seconds
#
# Revision: 1
# Processed by: cddbd v1.5.2PL0 Copyright (c) Steve Scherf et al.
# Submitted via: audiograbber 1.83.01
#
DISCID=5b11a607
DTITLE=Grateful Dead - 78-01-22A McArthur Court, Uni of Oregon, Eugene OR
DYEAR=1900
DGENRE=
TTITLE0=Terrapin Station
TTITLE1=Drums
TTITLE2=The Other One
TTITLE3=St Stephen
TTITLE4=Not Fade Away
TTITLE5=Around and Around
TTITLE6=US Blues
EXTD=
EXTT0=
EXTT1=
EXTT2=
EXTT3=
EXTT4=
EXTT5=
EXTT6=
PLAYORDER=
